<svg width="138" height="38" viewBox="0 0 138 38" fill="none" xmlns="http://www.w3.org/2000/svg">
<rect width="38" height="38" rx="4" fill="url(#paint0_linear)"/>
<path fill-rule="evenodd" clip-rule="evenodd" d="M14.3849 7C14.3063 7 14.2426 7.06374 14.2426 7.14238V18.4244H13.6516V12.8546C13.6516 12.7759 13.5879 12.7122 13.5092 12.7122H12.8091C12.7305 12.7122 12.6667 12.7759 12.6667 12.8546V18.4244H12.0759V14.6274C12.0759 14.5487 12.0121 14.485 11.9335 14.485H11.2334C11.1548 14.485 11.091 14.5487 11.091 14.6274V18.4244H10.5001V10.097C10.5001 10.0184 10.4363 9.95463 10.3577 9.95463H9.65758C9.57895 9.95463 9.51521 10.0184 9.51521 10.097V18.4244H8.92436V9.30903C8.92436 9.2304 8.86062 9.16665 8.78198 9.16665H8.08188C8.00324 9.16665 7.9395 9.2304 7.9395 9.30903V18.4244H7.34854V13.8394C7.34854 13.7608 7.28479 13.697 7.20616 13.697H6.50605C6.42742 13.697 6.36368 13.7608 6.36368 13.8394V18.4244H5.77271V12.0667C5.77271 11.9881 5.70897 11.9243 5.63034 11.9243H4.93023C4.8516 11.9243 4.78785 11.9881 4.78785 12.0667V18.4244H4V18.8184H4.78785V25.1761C4.78785 25.2547 4.8516 25.3185 4.93023 25.3185H5.63034C5.70897 25.3185 5.77271 25.2547 5.77271 25.1761V18.8184H6.36368V23.4032C6.36368 23.4819 6.42742 23.5456 6.50605 23.5456H7.20616C7.28479 23.5456 7.34854 23.4819 7.34854 23.4032V18.8184H7.9395V27.9336C7.9395 28.0122 8.00324 28.076 8.08188 28.076H8.78198C8.86062 28.076 8.92436 28.0122 8.92436 27.9336V18.8184H9.51521V27.1458C9.51521 27.2244 9.57895 27.2882 9.65758 27.2882H10.3577C10.4363 27.2882 10.5001 27.2244 10.5001 27.1458V18.8184H11.091V22.6154C11.091 22.6941 11.1548 22.7578 11.2334 22.7578H11.9335C12.0121 22.7578 12.0759 22.6941 12.0759 22.6154V18.8184H12.6667V24.3882C12.6667 24.4668 12.7305 24.5305 12.8091 24.5305H13.5092C13.5879 24.5305 13.6516 24.4668 13.6516 24.3882V18.8184H14.2426V30.1003C14.2426 30.179 14.3063 30.2427 14.3849 30.2427H15.085C15.1637 30.2427 15.2274 30.179 15.2274 30.1003V18.8184H15.8184V26.9488C15.8184 27.0274 15.8821 27.0912 15.9608 27.0912H16.6609C16.7395 27.0912 16.8032 27.0274 16.8032 26.9488V18.8184H17.3941V21.6305C17.3941 21.7091 17.4578 21.7729 17.5365 21.7729H18.2366C18.3152 21.7729 18.379 21.7091 18.379 21.6305V18.8184H18.9699V24.1911C18.9699 24.2698 19.0337 24.3335 19.1123 24.3335H19.8124C19.891 24.3335 19.9548 24.2698 19.9548 24.1911V18.8184H20.5456V26.1609C20.5456 26.2395 20.6094 26.3032 20.688 26.3032H21.3881C21.4667 26.3032 21.5305 26.2395 21.5305 26.1609V18.8184H22.1214V27.9336C22.1214 28.0122 22.1852 28.076 22.2638 28.076H22.9639C23.0426 28.076 23.1063 28.0122 23.1063 27.9336V18.8184H23.6973V29.1155C23.6973 29.1942 23.761 29.2579 23.8396 29.2579H24.5398C24.6184 29.2579 24.6821 29.1942 24.6821 29.1155V18.8184H25.273V27.1458C25.273 27.2244 25.3367 27.2882 25.4153 27.2882H26.1155C26.1941 27.2882 26.2578 27.2244 26.2578 27.1458V18.8184H26.8488V26.1609C26.8488 26.2395 26.9125 26.3033 26.9912 26.3033H27.6913C27.7699 26.3033 27.8337 26.2395 27.8337 26.1609V18.8184H28.4245V22.8124C28.4245 22.891 28.4882 22.9547 28.5669 22.9547H29.267C29.3456 22.9547 29.4094 22.891 29.4094 22.8124V18.8184H30.0003V21.6305C30.0003 21.7091 30.0641 21.7729 30.1427 21.7729H30.8428C30.9214 21.7729 30.9852 21.7091 30.9852 21.6305V18.8184H31.5761V23.2063C31.5761 23.2849 31.6399 23.3487 31.7185 23.3487H32.4186C32.4973 23.3487 32.561 23.2849 32.561 23.2063V18.8184H33.3489V18.4244H32.561V14.2334C32.561 14.1547 32.4973 14.091 32.4186 14.091H31.7185C31.6399 14.091 31.5761 14.1547 31.5761 14.2334V18.4244H30.9852V15.6121C30.9852 15.5335 30.9214 15.4698 30.8428 15.4698H30.1427C30.0641 15.4698 30.0003 15.5335 30.0003 15.6121V18.4244H29.4094V14.4303C29.4094 14.3517 29.3456 14.288 29.267 14.288H28.5669C28.4882 14.288 28.4245 14.3517 28.4245 14.4303V18.4244H27.8337V11.4758C27.8337 11.3971 27.7699 11.3334 27.6913 11.3334H26.9912C26.9125 11.3334 26.8488 11.3971 26.8488 11.4758V18.4244H26.2578V10.097C26.2578 10.0184 26.1941 9.95463 26.1155 9.95463H25.4153C25.3367 9.95463 25.273 10.0184 25.273 10.097V18.4244H24.6821V8.12728C24.6821 8.04865 24.6184 7.9849 24.5398 7.9849H23.8396C23.761 7.9849 23.6973 8.04865 23.6973 8.12728V18.4244H23.1063V9.30903C23.1063 9.2304 23.0426 9.16665 22.9639 9.16665H22.2638C22.1852 9.16665 22.1214 9.2304 22.1214 9.30903V18.4244H21.5305V11.0818C21.5305 11.0032 21.4667 10.9394 21.3881 10.9394H20.688C20.6094 10.9394 20.5456 11.0032 20.5456 11.0818V18.4244H19.9548V13.0515C19.9548 12.9729 19.891 12.9091 19.8124 12.9091H19.1123C19.0337 12.9091 18.9699 12.9729 18.9699 13.0515V18.4244H18.379V15.6121C18.379 15.5335 18.3152 15.4698 18.2366 15.4698H17.5365C17.4578 15.4698 17.3941 15.5335 17.3941 15.6121V18.4244H16.8032V10.2939C16.8032 10.2153 16.7395 10.1516 16.6609 10.1516H15.9608C15.8821 10.1516 15.8184 10.2153 15.8184 10.2939V18.4244H15.2274V7.14238C15.2274 7.06374 15.1637 7 15.085 7H14.3849Z" fill="white"/>
<path d="M49.709 24.3105C49.709 25.4434 50.2949 26 51.4668 26H54.5723C58.4688 26 60.5293 23.6953 60.5293 19.3398C60.5293 14.9746 58.4688 12.6699 54.5723 12.6699H51.4668C50.2949 12.6699 49.709 13.2266 49.709 14.3594V24.3105ZM52.3457 23.8418V14.8184H54.2402C56.6816 14.8184 57.834 16.2637 57.834 19.3398C57.834 22.3965 56.6914 23.8418 54.2402 23.8418H52.3457ZM62.1211 21.498C62.1211 24.4375 63.9961 26.2246 67.0332 26.2246C68.3711 26.2246 69.5527 25.873 70.2363 25.2969C70.7246 24.9453 71.0078 24.5059 71.0078 24.0469C71.0078 23.4805 70.6367 23.1094 70.0996 23.1094C69.6992 23.1094 69.5234 23.2559 69.0254 23.6367C68.5664 24.0176 68 24.2129 67.1992 24.2129C65.666 24.2129 64.748 23.2852 64.7383 21.8398V21.3906H69.9824C70.9492 21.3906 71.2812 21.0098 71.2812 19.8477C71.2812 17.2891 69.416 15.4141 66.7793 15.4141C63.9961 15.4141 62.1211 17.3281 62.1211 20.1602V21.498ZM64.7383 19.7598V19.7402C64.7383 18.3438 65.5488 17.4062 66.8184 17.4062C68.0391 17.4062 68.8203 18.3242 68.8203 19.7402V19.7598H64.7383ZM72.9805 21.498C72.9805 24.4375 74.8555 26.2246 77.8926 26.2246C79.2305 26.2246 80.4121 25.873 81.0957 25.2969C81.584 24.9453 81.8672 24.5059 81.8672 24.0469C81.8672 23.4805 81.4961 23.1094 80.959 23.1094C80.5586 23.1094 80.3828 23.2559 79.8848 23.6367C79.4258 24.0176 78.8594 24.2129 78.0586 24.2129C76.5254 24.2129 75.6074 23.2852 75.5977 21.8398V21.3906H80.8418C81.8086 21.3906 82.1406 21.0098 82.1406 19.8477C82.1406 17.2891 80.2754 15.4141 77.6387 15.4141C74.8555 15.4141 72.9805 17.3281 72.9805 20.1602V21.498ZM75.5977 19.7598V19.7402C75.5977 18.3438 76.4082 17.4062 77.6777 17.4062C78.8984 17.4062 79.6797 18.3242 79.6797 19.7402V19.7598H75.5977ZM86.8379 21.5566V20.1797C86.8379 18.5195 87.668 17.5332 89.0156 17.5332C90.3926 17.5332 91.1738 18.5488 91.1738 20.3359V21.2734C91.1738 23.0508 90.3926 24.0762 89.0352 24.0762C87.7168 24.0762 86.8379 23.0801 86.8379 21.5566ZM86.8379 28.2656V24.418H86.9648C87.4238 25.5117 88.4883 26.1367 89.9043 26.1367C92.3359 26.1367 93.8008 24.3984 93.8008 21.5176V20.082C93.8008 17.2012 92.3555 15.4727 89.9434 15.4727C88.4883 15.4727 87.3457 16.166 86.9258 17.2793H86.7988V16.7812C86.7402 15.9805 86.291 15.541 85.5293 15.541C84.7188 15.541 84.2695 16.0488 84.2695 16.9668V28.2656C84.2695 29.1738 84.7285 29.6816 85.5488 29.6816C86.3789 29.6816 86.8379 29.1738 86.8379 28.2656ZM97.4531 26.0977C98.2832 26.0977 98.752 25.5801 98.752 24.6719V20.6973H103.166C103.84 20.6973 104.289 20.2773 104.289 19.6328C104.289 18.9883 103.85 18.5684 103.166 18.5684H98.752V14.8477H103.664C104.328 14.8477 104.787 14.418 104.787 13.7637C104.787 13.1191 104.328 12.6699 103.664 12.6699H97.873C96.6914 12.6699 96.1152 13.2363 96.1152 14.3594V24.6719C96.1152 25.5703 96.6133 26.0977 97.4531 26.0977ZM112.834 24.2715H112.971V24.8281C113 25.6777 113.479 26.0977 114.221 26.0977C114.973 26.0977 115.49 25.6191 115.49 24.7305V16.9375C115.49 16 114.992 15.541 114.201 15.541C113.4 15.541 112.912 16 112.912 16.9375V21.8887C112.912 23.1094 112.062 23.998 110.734 23.998C109.709 23.998 108.889 23.4512 108.889 22.0059V16.9375C108.889 16 108.4 15.541 107.609 15.541C106.809 15.541 106.32 16 106.32 16.9375V22.6602C106.32 25.0625 107.717 26.1367 109.729 26.1367C111.496 26.1367 112.502 25.2285 112.834 24.2715ZM117.541 23.9199C117.541 24.5742 117.971 25.1602 118.762 25.5801C119.533 25.9902 120.559 26.2246 121.691 26.2246C124.396 26.2246 126.027 24.9648 126.027 22.9238C126.027 21.3809 125.158 20.4531 123.312 20.043L121.447 19.6426C120.559 19.4375 120.158 19.0859 120.158 18.4902C120.158 17.7676 120.754 17.2988 121.74 17.2988C122.424 17.2988 122.951 17.4941 123.693 18.0605C124.172 18.4023 124.445 18.5 124.748 18.5C125.334 18.5 125.725 18.1582 125.725 17.6016C125.725 17.0059 125.285 16.4297 124.543 16.0293C123.801 15.6289 122.863 15.4141 121.877 15.4141C119.318 15.4141 117.678 16.6934 117.678 18.6465C117.678 20.1797 118.576 21.1172 120.5 21.5371L122.141 21.9082C123.088 22.1133 123.547 22.5527 123.547 23.1484C123.547 23.8711 122.893 24.3203 121.828 24.3203C120.979 24.3203 120.305 24.0469 119.553 23.4512C119.104 23.0996 118.85 22.9629 118.518 22.9629C117.932 22.9629 117.541 23.3438 117.541 23.9199ZM127.707 21.498C127.707 24.4375 129.582 26.2246 132.619 26.2246C133.957 26.2246 135.139 25.873 135.822 25.2969C136.311 24.9453 136.594 24.5059 136.594 24.0469C136.594 23.4805 136.223 23.1094 135.686 23.1094C135.285 23.1094 135.109 23.2559 134.611 23.6367C134.152 24.0176 133.586 24.2129 132.785 24.2129C131.252 24.2129 130.334 23.2852 130.324 21.8398V21.3906H135.568C136.535 21.3906 136.867 21.0098 136.867 19.8477C136.867 17.2891 135.002 15.4141 132.365 15.4141C129.582 15.4141 127.707 17.3281 127.707 20.1602V21.498ZM130.324 19.7598V19.7402C130.324 18.3438 131.135 17.4062 132.404 17.4062C133.625 17.4062 134.406 18.3242 134.406 19.7402V19.7598H130.324Z" fill="#323233"/>
<defs>
<linearGradient id="paint0_linear" x1="3" y1="3" x2="35" y2="37" gradientUnits="userSpaceOnUse">
<stop stop-color="#FC664D"/>
<stop offset="1" stop-color="#3238AC"/>
</linearGradient>
</defs>
</svg>
